<svg xmlns="http://www.w3.org/2000/svg" version="1.1" xmlns:xlink="http://www.w3.org/1999/xlink" xmlns:svgjs="http://svgjs.com/svgjs" width="1440" height="1000" preserveAspectRatio="none" viewBox="0 0 1440 1000"><g mask="url(&quot;#SvgjsMask1027&quot;)" fill="none"><rect width="1440" height="1000" x="0" y="0" fill="rgba(255, 255, 255, 1)"></rect><path d="M1216 707L1215 198" stroke-width="8" stroke="url(#SvgjsLinearGradient1028)" stroke-linecap="round" class="Up"></path><path d="M1202 904L1201 331" stroke-width="10" stroke="url(#SvgjsLinearGradient1028)" stroke-linecap="round" class="Up"></path><path d="M147 958L146 1215" stroke-width="6" stroke="url(#SvgjsLinearGradient1029)" stroke-linecap="round" class="Down"></path><path d="M74 924L73 1504" stroke-width="8" stroke="url(#SvgjsLinearGradient1028)" stroke-linecap="round" class="Up"></path><path d="M345 226L344 726" stroke-width="8" stroke="url(#SvgjsLinearGradient1029)" stroke-linecap="round" class="Down"></path><path d="M123 639L122 92" stroke-width="8" stroke="url(#SvgjsLinearGradient1029)" stroke-linecap="round" class="Down"></path><path d="M99 193L98 523" stroke-width="10" stroke="url(#SvgjsLinearGradient1029)" stroke-linecap="round" class="Down"></path><path d="M1157 299L1156 7" stroke-width="10" stroke="url(#SvgjsLinearGradient1028)" stroke-linecap="round" class="Up"></path><path d="M1252 67L1251 796" stroke-width="6" stroke="url(#SvgjsLinearGradient1028)" stroke-linecap="round" class="Up"></path><path d="M58 800L57 90" stroke-width="10" stroke="url(#SvgjsLinearGradient1028)" stroke-linecap="round" class="Up"></path><path d="M315 922L314 473" stroke-width="6" stroke="url(#SvgjsLinearGradient1029)" stroke-linecap="round" class="Down"></path><path d="M859 653L858 1135" stroke-width="6" stroke="url(#SvgjsLinearGradient1029)" stroke-linecap="round" class="Down"></path><path d="M290 636L289 285" stroke-width="6" stroke="url(#SvgjsLinearGradient1028)" stroke-linecap="round" class="Up"></path><path d="M683 837L682 1227" stroke-width="10" stroke="url(#SvgjsLinearGradient1029)" stroke-linecap="round" class="Down"></path><path d="M743 859L742 481" stroke-width="10" stroke="url(#SvgjsLinearGradient1028)" stroke-linecap="round" class="Up"></path><path d="M902 901L901 515" stroke-width="10" stroke="url(#SvgjsLinearGradient1029)" stroke-linecap="round" class="Down"></path><path d="M1230 628L1229 81" stroke-width="6" stroke="url(#SvgjsLinearGradient1028)" stroke-linecap="round" class="Up"></path><path d="M1241 435L1240 1024" stroke-width="10" stroke="url(#SvgjsLinearGradient1029)" stroke-linecap="round" class="Down"></path><path d="M1321 639L1320 933" stroke-width="6" stroke="url(#SvgjsLinearGradient1028)" stroke-linecap="round" class="Up"></path><path d="M790 936L789 218" stroke-width="10" stroke="url(#SvgjsLinearGradient1028)" stroke-linecap="round" class="Up"></path><path d="M81 472L80 726" stroke-width="10" stroke="url(#SvgjsLinearGradient1028)" stroke-linecap="round" class="Up"></path><path d="M63 985L62 1262" stroke-width="8" stroke="url(#SvgjsLinearGradient1028)" stroke-linecap="round" class="Up"></path><path d="M1108 503L1107 924" stroke-width="6" stroke="url(#SvgjsLinearGradient1029)" stroke-linecap="round" class="Down"></path><path d="M646 108L645 845" stroke-width="8" stroke="url(#SvgjsLinearGradient1029)" stroke-linecap="round" class="Down"></path><path d="M1374 263L1373 -107" stroke-width="6" stroke="url(#SvgjsLinearGradient1029)" stroke-linecap="round" class="Down"></path><path d="M117 527L116 149" stroke-width="6" stroke="url(#SvgjsLinearGradient1029)" stroke-linecap="round" class="Down"></path><path d="M893 374L892 862" stroke-width="10" stroke="url(#SvgjsLinearGradient1029)" stroke-linecap="round" class="Down"></path><path d="M1413 130L1412 -347" stroke-width="6" stroke="url(#SvgjsLinearGradient1029)" stroke-linecap="round" class="Down"></path><path d="M826 144L825 484" stroke-width="10" stroke="url(#SvgjsLinearGradient1029)" stroke-linecap="round" class="Down"></path><path d="M242 660L241 926" stroke-width="6" stroke="url(#SvgjsLinearGradient1029)" stroke-linecap="round" class="Down"></path><path d="M333 346L332 -154" stroke-width="8" stroke="url(#SvgjsLinearGradient1029)" stroke-linecap="round" class="Down"></path><path d="M568 99L567 819" stroke-width="10" stroke="url(#SvgjsLinearGradient1029)" stroke-linecap="round" class="Down"></path><path d="M358 157L357 -541" stroke-width="8" stroke="url(#SvgjsLinearGradient1029)" stroke-linecap="round" class="Down"></path><path d="M920 428L919 981" stroke-width="10" stroke="url(#SvgjsLinearGradient1028)" stroke-linecap="round" class="Up"></path><path d="M88 36L87 -620" stroke-width="8" stroke="url(#SvgjsLinearGradient1028)" stroke-linecap="round" class="Up"></path><path d="M174 584L173 1293" stroke-width="8" stroke="url(#SvgjsLinearGradient1028)" stroke-linecap="round" class="Up"></path></g><defs><mask id="SvgjsMask1027"><rect width="1440" height="1000" fill="#ffffff"></rect></mask><linearGradient x1="0%" y1="100%" x2="0%" y2="0%" id="SvgjsLinearGradient1028"><stop stop-color="rgba(235, 235, 235, 0)" offset="0"></stop><stop stop-color="rgba(235, 235, 235, 1)" offset="1"></stop></linearGradient><linearGradient x1="0%" y1="0%" x2="0%" y2="100%" id="SvgjsLinearGradient1029"><stop stop-color="rgba(235, 235, 235, 0)" offset="0"></stop><stop stop-color="rgba(235, 235, 235, 1)" offset="1"></stop></linearGradient></defs></svg>